# xmcd CD database file
#
# Track frame offsets:
#	150
#	34237
#	96022
#	153972
#	174568
#	217643
#	254944
#
# Disc length: 3850 seconds
#
# Revision: 0
# Processed by: cddbd v1.5.2PL0 Copyright (c) Steve Scherf et al.
# Submitted via: CDex 1.51
#
DISCID=570f0807
DTITLE=Volker Kriegel and Friends - Jazzfest Berlin 81
DYEAR=1981
DGENRE=Jazz
TTITLE0=Calcador
TTITLE1=Schwebebahn
TTITLE2=Chateau Sentimental
TTITLE3=Eberhards Solo
TTITLE4=Naura
TTITLE5=Storyboard
TTITLE6=Donalds Bluse
EXTD=YEAR: 1981
EXTT0=
EXTT1=
EXTT2=
EXTT3=
EXTT4=
EXTT5=
EXTT6=
PLAYORDER=
